# Blender v2.74 (sub 0) OBJ File: ''
# www.blender.org
mtllib fireplace.mtl
o cube2
v 0.676876 -0.113978 0.856255
v 0.056490 1.899943 -0.045093
v 0.239810 1.815035 0.173632
v 0.770976 0.110582 0.937779
v 0.939100 -0.123781 0.653731
v 0.175248 2.027151 -0.260543
v 0.318373 1.942243 -0.010774
v 1.121312 0.020839 0.889657
v 0.116361 1.932775 0.049699
v 0.024775 2.087286 -0.267425
v 0.214568 2.115578 -0.005084
v 0.245327 2.059982 -0.173636
v 0.114443 2.161408 -0.134724
v 0.664476 0.053457 0.871254
v 0.777619 -0.147884 0.715672
v 1.020569 0.044942 1.030239
v 1.073910 -0.051471 0.737940
v 0.899094 -0.051471 0.872956
v -1.486000 -0.077610 1.486000
v 1.486000 -0.077610 1.486000
v -1.486000 -0.077610 -1.486000
v 1.486000 -0.077610 -1.486000
v -0.959739 -0.000457 0.708491
v 0.181813 1.360108 0.469797
v 0.313402 1.255738 0.379662
v -0.779461 -0.143444 0.585007
v -1.024035 0.036845 0.449717
v -0.045813 1.166688 0.310934
v 0.085776 1.062318 0.220799
v -0.843757 -0.106142 0.326232
v 0.255429 1.303385 0.456211
v -0.027781 1.190615 0.417658
v 0.147672 1.051455 0.297479
v 0.012159 1.119041 0.234386
v 0.099072 1.168813 0.351068
v -0.858884 -0.078168 0.689878
v -1.021934 0.042025 0.599685
v -0.781563 -0.148624 0.435039
v -0.944612 -0.028431 0.344845
v -0.901748 -0.053300 0.517362
v 0.138970 0.030967 1.302911
v -0.027227 0.858698 -0.584568
v -0.172244 0.710436 -0.657788
v -0.059703 -0.172152 1.202601
v -0.132855 0.170021 1.360230
v -0.209162 0.825966 -0.240739
v -0.354179 0.677704 -0.313958
v -0.331528 -0.033098 1.259920
v -0.066666 0.767650 -0.628151
v -0.087291 0.812182 -0.277028
v -0.280647 0.614500 -0.374654
v -0.314739 0.768752 -0.270375
v -0.187537 0.742407 -0.391232
v 0.084937 -0.093769 1.243203
v 0.036170 0.134347 1.348289
v -0.228728 -0.136478 1.214542
v -0.277495 0.091637 1.319628
v -0.096279 -0.001066 1.281416
v 0.857285 -0.027892 -0.505043
v -1.340063 0.136960 0.210334
v -1.317415 -0.031995 0.388291
v 0.888313 -0.108780 -0.261243
v 0.932778 0.166930 -0.226647
v -0.929997 0.251914 0.310049
v -0.907349 0.082960 0.488005
v 0.963805 -0.064538 0.017153
v -1.337923 0.028782 0.265444
v -0.993733 0.211459 0.188234
v -0.963536 -0.013814 0.425510
v -0.909489 0.191138 0.432895
v -1.055496 0.104723 0.329282
v 0.860217 -0.025517 -0.429542
v 0.889860 0.108097 -0.406478
v 0.931230 -0.049947 -0.081411
v 0.960874 0.083667 -0.058347
v 0.910545 -0.046215 -0.243945
v 0.365252 -0.088346 -0.966427
v -0.348650 1.411442 0.356013
v -0.137820 1.493372 0.735696
v 0.714873 -0.088346 -0.866174
v 0.430600 0.187478 -1.194321
v 0.036850 1.249033 0.021947
v 0.215863 1.536942 0.137291
v 0.780221 0.187478 -1.094069
v -0.229001 1.377887 0.420326
v -0.118014 1.474621 0.177976
v 0.212082 1.455990 0.534526
v 0.096214 1.570497 0.072979
v 0.022956 1.565559 0.328461
v 0.529171 -0.134317 -0.878318
v 0.339656 0.049566 -1.097083
v 0.805817 0.049566 -0.963413
v 0.616302 0.233449 -1.182178
v 0.572737 0.049566 -1.030248
v -0.841651 -0.027513 -1.075139
v 0.066168 2.119414 0.164888
v 0.212644 1.965262 0.335642
v -0.640980 -0.119577 -0.841205
v -0.549861 -0.007816 -1.307658
v 0.144130 1.785080 -0.203816
v 0.290605 1.630927 -0.033062
v -0.349190 -0.099880 -1.073724
v 0.103908 2.039942 0.278552
v 0.025553 1.835422 -0.129246
v 0.220853 1.629886 0.098426
v 0.252865 1.710400 -0.146726
v 0.152440 1.808161 0.027676
v -0.789948 -0.136390 -0.919419
v -0.729202 0.017534 -1.230387
v -0.461640 -0.144926 -0.918476
v -0.400894 -0.110128 -1.229444
v -0.595421 -0.123259 -1.074431
v 0.676876 -0.113978 0.856255
v 0.056490 1.899943 -0.045093
v 0.239810 1.815035 0.173632
v 0.239810 1.815035 0.173632
v 0.770976 0.110582 0.937779
v 0.770976 0.110582 0.937779
v 0.318373 1.942243 -0.010774
v 1.121312 0.020839 0.889657
v 0.116361 1.932775 0.049699
v 0.214568 2.115578 -0.005084
v 0.245327 2.059982 -0.173636
v 0.664476 0.053457 0.871254
v 0.777619 -0.147884 0.715672
v 1.020569 0.044942 1.030239
v -1.486000 -0.077610 1.486000
v 1.486000 -0.077610 1.486000
v -1.486000 -0.077610 -1.486000
v 1.486000 -0.077610 -1.486000
v -0.959739 -0.000457 0.708491
v -0.959739 -0.000457 0.708491
v 0.181813 1.360108 0.469797
v 0.181813 1.360108 0.469797
v -0.779461 -0.143444 0.585007
v -1.024035 0.036845 0.449717
v -0.045813 1.166688 0.310934
v 0.085776 1.062318 0.220799
v 0.255429 1.303385 0.456211
v -0.027781 1.190615 0.417658
v 0.012159 1.119041 0.234386
v -0.858884 -0.078168 0.689878
v -1.021934 0.042025 0.599685
v -0.944612 -0.028431 0.344845
v 0.138970 0.030967 1.302911
v -0.027227 0.858698 -0.584568
v -0.132855 0.170021 1.360230
v -0.209162 0.825966 -0.240739
v -0.354179 0.677704 -0.313958
v -0.331528 -0.033098 1.259920
v -0.066666 0.767650 -0.628151
v -0.087291 0.812182 -0.277028
v -0.087291 0.812182 -0.277028
v -0.314739 0.768752 -0.270375
v 0.084937 -0.093769 1.243203
v 0.036170 0.134347 1.348289
v 0.036170 0.134347 1.348289
v -0.277495 0.091637 1.319628
v 0.857285 -0.027892 -0.505043
v -1.340063 0.136960 0.210334
v -1.317415 -0.031995 0.388291
v 0.932778 0.166930 -0.226647
v -0.929997 0.251914 0.310049
v 0.963805 -0.064538 0.017153
v -1.337923 0.028782 0.265444
v -0.993733 0.211459 0.188234
v -0.993733 0.211459 0.188234
v -0.909489 0.191138 0.432895
v 0.889860 0.108097 -0.406478
v 0.889860 0.108097 -0.406478
v 0.931230 -0.049947 -0.081411
v 0.960874 0.083667 -0.058347
v -0.348650 1.411442 0.356013
v -0.137820 1.493372 0.735696
v 0.714873 -0.088346 -0.866174
v 0.430600 0.187478 -1.194321
v 0.215863 1.536942 0.137291
v 0.780221 0.187478 -1.094069
v -0.229001 1.377887 0.420326
v 0.212082 1.455990 0.534526
v 0.212082 1.455990 0.534526
v 0.096214 1.570497 0.072979
v 0.529171 -0.134317 -0.878318
v 0.805817 0.049566 -0.963413
v 0.805817 0.049566 -0.963413
v 0.616302 0.233449 -1.182178
v -0.841651 -0.027513 -1.075139
v 0.066168 2.119414 0.164888
v -0.549861 -0.007816 -1.307658
v 0.144130 1.785080 -0.203816
v 0.290605 1.630927 -0.033062
v -0.349190 -0.099880 -1.073724
v 0.025553 1.835422 -0.129246
v 0.025553 1.835422 -0.129246
v 0.220853 1.629886 0.098426
v 0.252865 1.710400 -0.146726
v -0.789948 -0.136390 -0.919419
v -0.729202 0.017534 -1.230387
v -0.729202 0.017534 -1.230387
v -0.400894 -0.110128 -1.229444
vt 0.583545 0.259814
vt 0.894472 0.304601
vt 0.895422 0.321855
vt 0.527530 0.280810
vt 0.572275 0.431282
vt 0.518096 0.409265
vt 0.858809 0.422394
vt 0.908850 0.408963
vt 0.522929 0.332256
vt 0.914791 0.364126
vt 0.910369 0.380746
vt 0.520522 0.357776
vt 0.930900 0.346554
vt 0.525409 0.306557
vt 0.947216 0.381189
vt 0.936838 0.365471
vt 0.969484 0.367685
vt 0.987132 0.383626
vt 0.965986 0.353743
vt 0.923038 0.378285
vt 0.934181 0.401105
vt 0.488732 0.297542
vt 0.504299 0.316269
vt 0.492217 0.345083
vt 0.439233 0.324956
vt 0.480080 0.373364
vt 0.434001 0.343393
vt 0.504211 0.375662
vt 0.869692 0.285652
vt 0.586074 0.239551
vt 0.882328 0.395396
vt 0.518546 0.383497
vt 0.395756 0.604167
vt 0.395756 0.979167
vt 0.020756 0.604167
vt 0.020756 0.979167
vt 0.395611 0.603956
vt 0.395611 0.978956
vt 0.020611 0.603956
vt 0.020611 0.978956
vt 0.455757 0.749079
vt 0.886839 0.702715
vt 0.888297 0.733797
vt 0.456816 0.771786
vt 0.888321 0.769311
vt 0.887835 0.805637
vt 0.519361 0.820750
vt 0.456829 0.797731
vt 0.527986 0.892509
vt 0.526667 0.866595
vt 0.889184 0.868798
vt 0.891032 0.904274
vt 0.891090 0.972613
vt 0.458838 0.938212
vt 0.522336 0.918720
vt 0.891919 0.940594
vt 0.493276 0.842636
vt 0.441562 0.818095
vt 0.434253 0.839076
vt 0.487130 0.877507
vt 0.511356 0.874426
vt 0.527695 0.857333
vt 0.534215 0.837230
vt 0.972102 0.782558
vt 0.972186 0.814919
vt 0.930004 0.810231
vt 0.943946 0.768785
vt 0.908865 0.775736
vt 0.887847 0.837704
vt 0.915932 0.851619
vt 0.951066 0.844816
vt 0.525717 0.843883
vt 0.445316 0.060508
vt 0.446453 0.090382
vt 0.030964 0.101288
vt 0.031793 0.123094
vt 0.446173 0.124502
vt 0.445365 0.159381
vt 0.091422 0.170661
vt 0.031589 0.147999
vt 0.099098 0.239631
vt 0.098040 0.214745
vt 0.446103 0.220012
vt 0.447553 0.254105
vt 0.087679 0.072094
vt 0.440661 0.030116
vt 0.066175 0.191463
vt 0.016734 0.167420
vt 0.059954 0.224886
vt 0.009525 0.187514
vt 0.083232 0.222156
vt 0.099102 0.205895
vt 0.105559 0.186700
vt 0.500271 0.096430
vt 0.517414 0.122080
vt 0.481368 0.140740
vt 0.470478 0.100364
vt 0.462491 0.185012
vt 0.492213 0.181133
vt 0.516532 0.157047
vt 0.097308 0.192933
vt 0.445100 0.190129
vt 0.448104 0.288972
vt 0.093427 0.264756
vt 0.471420 0.519264
vt 0.884466 0.471939
vt 0.886199 0.500720
vt 0.472686 0.540271
vt 0.886591 0.533637
vt 0.886486 0.567260
vt 0.533245 0.584988
vt 0.472980 0.564286
vt 0.542233 0.651201
vt 0.540686 0.627230
vt 0.888417 0.625696
vt 0.890536 0.658536
vt 0.527484 0.490021
vt 0.879208 0.442728
vt 0.490023 0.540728
vt 0.501391 0.592672
vt 0.468244 0.550828
vt 0.480623 0.618803
vt 0.452830 0.564823
vt 0.524604 0.620071
vt 0.502644 0.626957
vt 0.539526 0.606216
vt 0.904101 0.477487
vt 0.934451 0.482824
vt 0.922724 0.520290
vt 0.911037 0.557697
vt 0.959207 0.539922
vt 0.941306 0.563071
vt 0.958882 0.506926
vt 0.886827 0.596907
vt 0.891773 0.692138
vt 0.537064 0.675530
vt 0.083408 0.417268
vt 0.079211 0.389019
vt 0.396576 0.404235
vt 0.399639 0.424855
vt 0.075746 0.360670
vt 0.075444 0.332112
vt 0.393981 0.323717
vt 0.434305 0.368671
vt 0.333269 0.475143
vt 0.368672 0.509470
vt 0.084644 0.502784
vt 0.085606 0.474230
vt 0.378760 0.464059
vt 0.086399 0.445670
vt 0.460247 0.471347
vt 0.431790 0.520098
vt 0.398362 0.491480
vt 0.418115 0.447495
vt 0.405612 0.432346
vt 0.364122 0.511848
vt 0.376240 0.525305
vt 0.051120 0.437899
vt 0.058891 0.402620
vt 0.015841 0.430128
vt 0.030489 0.405611
vt 0.018832 0.458530
vt 0.043349 0.473178
vt 0.071751 0.470187
vt 0.366122 0.530168
vt 0.396089 0.582638
vt 0.078155 0.559553
vt 0.081151 0.531140
vt 0.546464 0.064487
vt 0.916657 0.052043
vt 0.917251 0.079662
vt 0.546898 0.084647
vt 0.917400 0.107286
vt 0.916881 0.134921
vt 0.600586 0.125964
vt 0.546999 0.104725
vt 0.602178 0.186532
vt 0.603904 0.166441
vt 0.914002 0.190093
vt 0.911637 0.217618
vt 0.599464 0.041828
vt 0.915395 0.024446
vt 0.493208 0.120488
vt 0.499083 0.092735
vt 0.540563 0.066301
vt 0.484811 0.068324
vt 0.469750 0.079513
vt 0.468568 0.097641
vt 0.475327 0.114533
vt 0.967565 0.091519
vt 0.983818 0.113971
vt 0.950348 0.124473
vt 0.939852 0.091049
vt 0.933103 0.157426
vt 0.960841 0.157952
vt 0.983343 0.141706
vt 0.605245 0.146321
vt 0.915839 0.162527
vt 0.908480 0.245063
vt 0.594486 0.205946
vn -0.843600 -0.011400 0.536800
vn -0.911900 -0.103100 0.397200
vn -0.250400 0.330000 0.910200
vn 0.254700 0.510000 0.821600
vn 0.776900 0.008300 -0.629600
vn 0.573000 -0.124900 -0.810000
vn -0.898100 -0.391100 -0.201400
vn -0.776600 -0.440700 -0.450200
vn -0.587500 0.505100 0.632300
vn -0.383500 0.448000 0.807600
vn -0.845300 0.331100 0.419300
vn -0.857700 0.326300 0.397300
vn 0.383800 0.718000 -0.580700
vn 0.316300 0.721000 -0.616500
vn 0.857700 0.514100 -0.013000
vn 0.574500 0.802700 -0.159900
vn 0.224300 -0.898400 0.377500
vn -0.048700 -0.092700 0.994500
vn -0.411900 -0.600000 0.685900
vn -0.237000 -0.516500 0.822900
vn 0.266800 -0.899700 0.345500
vn -0.623500 0.153300 0.766700
vn -0.586600 0.172000 0.791400
vn 0.817000 0.478700 0.321400
vn 0.736600 0.513900 0.439700
vn 0.903800 0.200600 -0.378000
vn 0.936200 0.270500 -0.224300
vn -0.259100 -0.454300 -0.852300
vn -0.133700 -0.436400 -0.889800
vn 0.000000 -1.000000 0.000000
vn 0.000000 1.000000 0.000000
vn 0.190600 0.012300 0.981600
vn 0.791200 -0.611500 0.010000
vn 0.784300 -0.618900 -0.043100
vn -0.580700 0.416900 -0.699300
vn -0.614900 0.604700 0.506100
vn -0.579400 0.590500 0.561800
vn -0.040600 0.401100 -0.915100
vn -0.218400 0.745600 -0.629500
vn 0.191400 0.456500 -0.868900
vn -0.292300 0.592400 -0.750800
vn 0.048400 0.972900 -0.226300
vn 0.114800 0.880000 -0.460900
vn 0.415400 0.683000 -0.600800
vn 0.701000 0.515400 -0.492900
vn -0.605800 -0.794800 0.035900
vn 0.611400 -0.375300 0.696700
vn 0.614900 -0.541800 -0.573100
vn 0.619300 -0.543800 -0.566300
vn -0.155500 0.034600 -0.987200
vn -0.756700 0.653700 -0.012000
vn -0.757400 0.652700 -0.018400
vn 0.929600 -0.300400 -0.213600
vn -0.216000 -0.885500 -0.411400
vn -0.268100 -0.876600 -0.399700
vn -0.520200 0.781300 0.344900
vn 0.737900 0.641000 0.211300
vn 0.691500 0.682000 0.238200
vn -0.810100 0.574800 -0.115400
vn -0.443500 0.886600 -0.131800
vn -0.579100 0.815200 0.010200
vn -0.788000 0.507900 -0.347900
vn -0.047500 0.870400 -0.490100
vn -0.302200 0.814300 -0.495600
vn -0.517500 0.541400 -0.662700
vn -0.484300 0.243600 -0.840300
vn -0.025200 -0.422700 0.905900
vn 0.521000 -0.758600 -0.391400
vn -0.745000 -0.612200 -0.265000
vn -0.739400 -0.617500 -0.268200
vn -0.931400 0.326500 0.160800
vn 0.216900 0.906900 0.361200
vn 0.210600 0.907800 0.362600
vn -0.063800 -0.997400 0.033900
vn -0.280600 -0.440100 -0.853000
vn 0.061300 -0.952900 0.297100
vn 0.028000 -0.977100 0.210700
vn 0.160700 0.895100 0.416000
vn -0.209000 0.606200 -0.767300
vn -0.188100 0.657900 -0.729200
vn -0.114800 0.570900 0.813000
vn -0.326200 0.824500 0.462400
vn -0.140400 0.818100 0.557600
vn -0.307100 0.427200 0.850400
vn -0.663700 0.620500 0.417800
vn -0.738800 0.652100 0.170000
vn -0.668000 0.327300 0.668300
vn -0.732000 -0.014900 0.681200
vn 0.976900 -0.211300 -0.031300
vn 0.947500 -0.162700 -0.275100
vn 0.945200 -0.300700 -0.127200
vn 0.926500 -0.252000 -0.279400
vn 0.972700 -0.193700 -0.128200
vn 0.932000 -0.149800 -0.330200
vn 0.975100 -0.085100 -0.204900
vn -0.154100 -0.895600 -0.417400
vn 0.194100 -0.609200 0.768900
vn -0.105900 -0.988100 -0.111300
vn 0.251400 0.443300 0.860400
vn -0.043300 0.952500 -0.301300
vn -0.040900 0.954400 -0.295600
vn -0.481100 -0.697400 0.531200
vn 0.837500 -0.191500 0.511700
vn 0.369000 -0.555600 0.745100
vn -0.782800 0.236000 -0.575700
vn -0.135100 0.724400 -0.676000
vn -0.632300 0.320900 -0.705200
vn -0.966500 -0.246800 -0.071100
vn 0.251400 0.931100 0.264300
vn -0.618600 0.778500 -0.106200
vn -0.583100 0.810400 0.056500
vn 0.048600 0.919800 0.389400
vn -0.451200 0.885300 -0.112300
vn -0.508400 0.225800 -0.831000
vn 0.227000 0.970300 0.083900
vn 0.327200 0.925300 0.191700
vn 0.209000 -0.651800 -0.729000
vn -0.546600 -0.722800 0.422700
vn 0.102100 -0.618200 0.779400
vn 0.944600 0.319800 0.074200
vn 0.950000 0.288900 0.118800
vn 0.482700 0.691900 -0.537000
vn -0.850900 0.227100 -0.473700
vn 0.354400 0.684200 -0.637500
vn -0.902800 0.148600 0.403600
vn 0.262300 -0.553700 0.790300
vn 0.260500 -0.553300 0.791200
vn 0.580000 0.252400 -0.774500
vn -0.711600 0.552000 -0.434700
vn -0.747200 0.542700 -0.383700
vn 0.924200 0.235300 -0.300700
vn 0.653800 0.614600 -0.441300
vn 0.946600 0.306500 -0.100000
vn 0.736100 0.433300 -0.520000
vn 0.331700 0.937500 -0.105400
vn 0.598700 0.794600 -0.100700
vn 0.803500 0.579100 0.138100
vn 0.780400 0.465300 0.417700
vn -0.318800 -0.823200 -0.469800
vn 0.094400 -0.995000 0.034100
vn -0.145300 -0.989300 -0.012800
vn 0.092900 -0.972200 -0.214800
vn -0.566400 -0.216900 0.795100
vn -0.416400 -0.301200 0.857800
vn 0.756900 -0.518800 0.397400
vn 0.756800 -0.518800 0.397600
vn 0.940200 -0.158200 -0.301800
vn 0.917800 -0.109900 -0.381500
vn -0.253300 0.576400 -0.776900
vn -0.246500 0.574900 -0.780200
usemtl default2
s off
f 124/1/1 9/2/1 2/3/1
f 2/3/2 113/4/2 124/1/2
f 117/5/3 126/6/3 3/7/3
f 126/6/4 11/8/4 3/7/4
f 5/9/5 6/10/5 12/11/5
f 5/9/6 12/11/6 17/12/6
f 2/3/7 10/13/7 125/14/7
f 2/3/8 125/14/8 113/4/8
f 122/15/9 13/16/9 121/17/9
f 121/17/10 116/18/10 122/15/10
f 114/19/11 121/17/11 13/16/11
f 114/19/12 13/16/12 10/13/12
f 13/16/13 123/20/13 6/10/13
f 6/10/14 10/13/14 13/16/14
f 122/15/15 119/21/15 123/20/15
f 122/15/16 123/20/16 13/16/16
f 1/22/17 15/23/17 18/24/17
f 1/22/18 18/24/18 14/25/18
f 18/24/19 16/26/19 4/27/19
f 4/27/20 14/25/20 18/24/20
f 8/28/21 16/26/21 18/24/21
f 8/28/21 18/24/21 17/12/21
f 5/9/21 17/12/21 18/24/21
f 18/24/21 15/23/21 5/9/21
f 115/29/22 9/2/22 124/1/22
f 115/29/23 124/1/23 118/30/23
f 7/31/24 11/8/24 126/6/24
f 7/31/25 126/6/25 120/32/25
f 7/31/26 120/32/26 17/12/26
f 7/31/27 17/12/27 12/11/27
f 5/9/28 125/14/28 6/10/28
f 125/14/29 10/13/29 6/10/29
f 127/33/30 129/34/30 20/35/30
f 129/34/30 22/36/30 20/35/30
f 128/37/31 130/38/31 19/39/31
f 130/38/31 21/40/31 19/39/31
f 133/41/32 23/42/32 36/43/32
f 133/41/32 36/43/32 139/44/32
f 26/45/33 38/46/33 33/47/33
f 26/45/34 33/47/34 25/48/34
f 137/49/35 34/50/35 39/51/35
f 137/49/35 39/51/35 27/52/35
f 131/53/36 134/54/36 140/55/36
f 131/53/37 140/55/37 37/56/37
f 25/48/38 33/47/38 35/57/38
f 25/48/39 35/57/39 31/58/39
f 31/58/40 35/57/40 24/59/40
f 35/57/41 32/60/41 24/59/41
f 28/61/42 32/60/42 35/57/42
f 28/61/43 35/57/43 141/62/43
f 138/63/44 141/62/44 35/57/44
f 138/63/45 35/57/45 33/47/45
f 132/64/46 143/65/46 40/66/46
f 132/64/46 40/66/46 142/67/46
f 142/67/46 40/66/46 135/68/46
f 40/66/46 38/46/46 135/68/46
f 30/69/46 38/46/46 40/66/46
f 30/69/46 40/66/46 144/70/46
f 136/71/46 144/70/46 40/66/46
f 136/71/46 40/66/46 143/65/46
f 26/45/47 25/48/47 139/44/47
f 26/45/47 139/44/47 36/43/47
f 29/72/48 33/47/48 38/46/48
f 29/72/49 38/46/49 30/69/49
f 30/69/50 39/51/50 34/50/50
f 30/69/50 34/50/50 29/72/50
f 137/49/51 27/52/51 37/56/51
f 137/49/52 37/56/52 140/55/52
f 41/73/53 54/74/53 146/75/53
f 54/74/53 151/76/53 146/75/53
f 44/77/54 56/78/54 51/79/54
f 44/77/55 51/79/55 43/80/55
f 148/81/56 52/82/56 57/83/56
f 148/81/56 57/83/56 45/84/56
f 152/85/57 55/86/57 41/73/57
f 41/73/58 146/75/58 152/85/58
f 43/80/59 51/79/59 53/87/59
f 43/80/60 53/87/60 49/88/60
f 53/87/61 50/89/61 42/90/61
f 42/90/62 49/88/62 53/87/62
f 50/89/63 53/87/63 46/91/63
f 53/87/64 154/92/64 46/91/64
f 149/93/65 154/92/65 53/87/65
f 53/87/66 51/79/66 149/93/66
f 145/94/67 157/95/67 58/96/67
f 145/94/67 58/96/67 155/97/67
f 155/97/67 58/96/67 44/77/67
f 58/96/67 56/78/67 44/77/67
f 150/98/67 56/78/67 58/96/67
f 150/98/67 58/96/67 158/99/67
f 147/100/67 158/99/67 58/96/67
f 147/100/67 58/96/67 157/95/67
f 151/76/68 54/74/68 44/77/68
f 44/77/68 43/80/68 151/76/68
f 47/101/69 51/79/69 56/78/69
f 47/101/70 56/78/70 48/102/70
f 48/102/71 57/83/71 52/82/71
f 52/82/71 47/101/71 48/102/71
f 148/81/72 45/84/72 156/103/72
f 148/81/73 156/103/73 153/104/73
f 160/105/74 59/106/74 72/107/74
f 160/105/75 72/107/75 165/108/75
f 62/109/76 74/110/76 69/111/76
f 69/111/77 61/112/77 62/109/77
f 163/113/78 168/114/78 75/115/78
f 163/113/78 75/115/78 63/116/78
f 166/117/79 73/118/79 59/106/79
f 59/106/80 160/105/80 166/117/80
f 161/119/81 69/111/81 71/120/81
f 71/120/82 67/121/82 161/119/82
f 71/120/83 68/122/83 60/123/83
f 60/123/84 67/121/84 71/120/84
f 71/120/85 70/124/85 64/125/85
f 64/125/86 68/122/86 71/120/86
f 65/126/87 70/124/87 71/120/87
f 71/120/88 69/111/88 65/126/88
f 159/127/89 170/128/89 72/107/89
f 170/128/90 76/129/90 72/107/90
f 76/129/91 171/130/91 62/109/91
f 62/109/92 72/107/92 76/129/92
f 171/130/93 76/129/93 172/131/93
f 172/131/94 164/132/94 171/130/94
f 162/133/95 172/131/95 76/129/95
f 162/133/95 76/129/95 170/128/95
f 62/109/96 61/112/96 165/108/96
f 62/109/96 165/108/96 72/107/96
f 65/126/97 69/111/97 74/110/97
f 65/126/98 74/110/98 66/134/98
f 66/134/99 75/115/99 168/114/99
f 66/134/99 168/114/99 65/126/99
f 63/116/100 169/135/100 163/113/100
f 169/135/101 167/136/101 163/113/101
f 77/137/102 183/138/102 85/139/102
f 85/139/102 78/140/102 77/137/102
f 175/141/103 184/142/103 87/143/103
f 175/141/104 87/143/104 79/144/104
f 82/145/105 182/146/105 186/147/105
f 186/147/106 176/148/106 82/145/106
f 77/137/107 78/140/107 86/149/107
f 77/137/108 86/149/108 91/150/108
f 174/151/109 181/152/109 89/153/109
f 174/151/110 89/153/110 179/154/110
f 179/154/111 89/153/111 86/149/111
f 179/154/112 86/149/112 173/155/112
f 86/149/113 89/153/113 88/156/113
f 86/149/114 88/156/114 82/145/114
f 177/157/115 88/156/115 89/153/115
f 177/157/116 89/153/116 181/152/116
f 77/137/117 91/150/117 94/158/117
f 77/137/117 94/158/117 90/159/117
f 94/158/117 92/160/117 80/161/117
f 80/161/117 90/159/117 94/158/117
f 84/162/117 92/160/117 94/158/117
f 84/162/117 94/158/117 93/163/117
f 81/164/117 93/163/117 94/158/117
f 94/158/117 91/150/117 81/164/117
f 175/141/118 79/144/118 85/139/118
f 175/141/119 85/139/119 183/138/119
f 83/165/120 180/166/120 185/167/120
f 185/167/121 178/168/121 83/165/121
f 178/168/122 186/147/122 83/165/122
f 186/147/122 182/146/122 83/165/122
f 82/145/123 176/148/123 91/150/123
f 82/145/124 91/150/124 86/149/124
f 188/169/125 95/170/125 108/171/125
f 188/169/125 108/171/125 103/172/125
f 98/173/126 110/174/126 195/175/126
f 98/173/127 195/175/127 97/176/127
f 190/177/128 196/178/128 111/179/128
f 190/177/128 111/179/128 99/180/128
f 188/169/129 194/181/129 95/170/129
f 194/181/130 198/182/130 95/170/130
f 97/176/131 105/183/131 107/184/131
f 97/176/132 107/184/132 103/172/132
f 103/172/133 107/184/133 96/185/133
f 107/184/134 104/186/134 96/185/134
f 100/187/135 104/186/135 107/184/135
f 100/187/136 107/184/136 106/188/136
f 101/189/137 106/188/137 107/184/137
f 101/189/138 107/184/138 105/183/138
f 187/190/139 199/191/139 112/192/139
f 187/190/139 112/192/139 197/193/139
f 98/173/140 197/193/140 112/192/140
f 98/173/141 112/192/141 110/174/141
f 110/174/142 112/192/142 192/194/142
f 112/192/140 200/195/140 192/194/140
f 189/196/139 200/195/139 112/192/139
f 112/192/139 199/191/139 189/196/139
f 97/176/143 103/172/143 98/173/143
f 103/172/144 108/171/144 98/173/144
f 191/197/145 195/175/145 110/174/145
f 110/174/146 102/198/146 191/197/146
f 102/198/147 111/179/147 196/178/147
f 102/198/148 196/178/148 191/197/148
f 190/177/149 99/180/149 109/199/149
f 190/177/150 109/199/150 193/200/150
