# This file uses centimeters as units for non-parametric coordinates.

mtllib plank2.mtl
g default
v -0.016671 3.740517 -0.179384
v -0.017871 5.124615 -0.179783
v 0.041629 5.124615 -0.179783
v 0.039629 3.740517 -0.179384
v 0.041629 5.120915 0.254917
v 0.039629 3.737415 0.192916
v 0.041629 0.019417 -0.222784
v 0.041629 0.015717 0.212016
v -0.014371 0.015717 0.212016
v -0.031471 0.015816 0.203717
v -0.031471 0.019318 -0.216183
v -0.017871 0.019417 -0.222784
v 0.037529 2.282417 0.206316
v -0.012171 2.282417 0.206316
v 0.037529 2.285618 -0.178983
v -0.015271 2.285618 -0.178983
v -0.027371 2.285618 -0.173084
v -0.027371 2.282417 0.199017
v -0.013371 3.737415 0.192916
v -0.014371 5.120915 0.254917
v -0.029471 3.737515 0.185017
v -0.031471 5.121018 0.246717
v -0.031471 5.124516 -0.173283
v -0.029471 3.740517 -0.173183
vt 0.284700 0.813100
vt 0.019100 0.813100
vt 0.019100 0.756500
vt 0.284700 0.756500
vt 0.717400 0.218100
vt 0.970800 0.218100
vt 0.970800 0.458100
vt 0.717400 0.458100
vt 0.123300 0.030700
vt 0.325400 0.030700
vt 0.325400 0.101500
vt 0.321500 0.123100
vt 0.126300 0.123100
vt 0.123300 0.105900
vt 0.010800 0.508200
vt 0.445800 0.508200
vt 0.445800 0.562900
vt 0.010800 0.562900
vt 0.035800 0.218100
vt 0.450900 0.218100
vt 0.450900 0.458100
vt 0.035800 0.458100
vt 0.988800 0.813100
vt 0.564000 0.813100
vt 0.564000 0.756500
vt 0.988800 0.756500
vt 0.988800 0.832800
vt 0.577700 0.832800
vt 0.019100 0.226700
vt 0.444100 0.226700
vt 0.444100 0.461000
vt 0.019100 0.461000
vt 0.010800 0.579600
vt 0.445800 0.579600
vt 0.725000 0.562900
vt 0.725000 0.508200
vt 0.990600 0.508200
vt 0.990600 0.562900
vt 0.716800 0.226700
vt 0.976300 0.226700
vt 0.976300 0.461000
vt 0.716800 0.461000
vt 0.342300 0.099100
vt 0.342300 0.041600
vt 0.561900 0.041600
vt 0.561900 0.102700
vt 0.558500 0.116600
vt 0.346400 0.116600
vt 0.990600 0.579600
vt 0.725000 0.579600
vt 0.284800 0.832800
vt 0.019100 0.832800
vn -0.000000 -0.009600 -0.999954
vn -0.000000 -0.009600 -0.999954
vn -0.000000 -0.009600 -0.999954
vn -0.000000 -0.009600 -0.999954
vn 0.999999 -0.001500 0.000000
vn 0.999999 -0.001500 0.000000
vn 0.999999 -0.001500 0.000000
vn 0.999999 -0.001500 0.000000
vn -0.000000 -0.999965 -0.008400
vn -0.000000 -0.999965 -0.008400
vn -0.000000 -0.999965 -0.008400
vn -0.000000 -0.999965 -0.008400
vn -0.000000 -0.999965 -0.008400
vn -0.000000 -0.999965 -0.008400
vn -0.000000 -0.999965 -0.008400
vn -0.000000 -0.999965 -0.008400
vn 0.000000 0.014200 0.999899
vn 0.000000 0.021100 0.999777
vn 0.000000 0.021100 0.999777
vn 0.000000 0.014200 0.999899
vn 0.999998 0.001800 0.000000
vn 1.000000 0.000200 0.000000
vn 1.000000 0.000200 0.000000
vn 0.999998 0.001800 0.000000
vn 0.000000 0.031001 -0.999519
vn 0.000000 0.010700 -0.999943
vn 0.000000 0.010700 -0.999943
vn 0.000000 0.031001 -0.999519
vn -0.706975 0.022699 -0.706875
vn -0.706975 0.022699 -0.706875
vn -0.707086 0.007600 -0.707086
vn -0.707086 0.007600 -0.707086
vn -0.999998 0.001800 0.000000
vn -1.000000 0.000200 0.000000
vn -1.000000 0.000200 0.000000
vn -0.999998 0.001800 0.000000
vn -0.707016 0.010700 0.707116
vn -0.707016 0.010700 0.707116
vn -0.706927 0.015001 0.707127
vn -0.706927 0.015001 0.707127
vn 1.000000 0.000200 0.000000
vn 0.999999 -0.001500 0.000000
vn 0.999999 -0.001500 0.000000
vn 1.000000 0.000200 0.000000
vn 0.000000 0.010700 -0.999943
vn -0.000000 -0.009600 -0.999954
vn -0.000000 -0.009600 -0.999954
vn 0.000000 0.010700 -0.999943
vn -0.000000 -0.027800 0.999614
vn -0.000000 -0.027800 0.999614
vn -0.000000 -0.083501 0.996508
vn -0.000000 -0.083501 0.996508
vn -0.999999 -0.001500 -0.000000
vn -0.999999 -0.001500 -0.000000
vn -0.999999 -0.001500 -0.000000
vn -0.999999 -0.001500 -0.000000
vn 0.000000 0.999965 0.008400
vn 0.000000 0.999965 0.008400
vn 0.000000 0.999965 0.008400
vn 0.000000 0.999965 0.008400
vn 0.000000 0.999965 0.008400
vn 0.000000 0.999965 0.008400
vn 0.000000 0.999965 0.008400
vn 0.000000 0.999965 0.008400
vn -0.706096 -0.059700 0.705596
vn -0.707013 -0.020200 0.706913
vn -0.707013 -0.020200 0.706913
vn -0.706096 -0.059700 0.705596
vn -0.707037 -0.007400 -0.707137
vn -0.707037 -0.007400 -0.707137
vn -0.707037 -0.007400 -0.707137
vn -0.707037 -0.007400 -0.707137
vn 0.000000 0.021100 0.999777
vn 0.000000 0.021100 0.999777
vn -0.000000 -0.027800 0.999614
vn -0.000000 -0.027800 0.999614
vn -0.707037 -0.007400 -0.707137
vn -0.707086 0.007600 -0.707086
vn -0.707086 0.007600 -0.707086
vn -0.707037 -0.007400 -0.707137
vn -1.000000 0.000200 0.000000
vn -1.000000 0.000200 0.000000
vn -0.999999 -0.001500 -0.000000
vn -0.999999 -0.001500 -0.000000
vn -0.706927 0.015001 0.707127
vn -0.706927 0.015001 0.707127
vn -0.707013 -0.020200 0.706913
vn -0.707013 -0.020200 0.706913
s off
g plank:pCube77
usemtl initialShadingGroup
f 1/1/1 2/2/2 3/3/3 4/4/4
f 4/5/5 3/6/6 5/7/7 6/8/8
f 7/9/9 8/10/10 9/11/11 10/12/12
f 7/9/13 10/12/14 11/13/15 12/14/16
f 8/15/17 13/16/18 14/17/19 9/18/20
f 7/19/21 15/20/22 13/21/23 8/22/24
f 12/23/25 16/24/26 15/25/27 7/26/28
f 12/23/29 11/27/30 17/28/31 16/24/32
f 10/29/33 18/30/34 17/31/35 11/32/36
f 10/33/37 9/18/38 14/17/39 18/34/40
f 15/20/41 4/5/42 6/8/43 13/21/44
f 16/24/45 1/1/46 4/4/47 15/25/48
f 19/35/49 6/36/50 5/37/51 20/38/52
f 21/39/53 22/40/54 23/41/55 24/42/56
f 20/43/57 5/44/58 3/45/59 2/46/60
f 20/43/61 2/46/62 23/47/63 22/48/64
f 22/49/65 21/50/66 19/35/67 20/38/68
f 2/2/69 1/1/70 24/51/71 23/52/72
f 14/17/73 13/16/74 6/36/75 19/35/76
f 1/1/77 16/24/78 17/28/79 24/51/80
f 17/31/81 18/30/82 21/39/83 24/42/84
f 18/34/85 14/17/86 19/35/87 21/50/88
