# This file uses centimeters as units for non-parametric coordinates.

mtllib mirror.mtl
g default
v -0.034626 14.994481 -3.542302
v -0.034626 14.994481 3.542302
v -0.034626 1.951037 -3.542302
v -0.034626 1.951037 3.542302
vt 0.000000 0.000000
vt 1.000000 0.000000
vt 0.000000 1.000000
vt 1.000000 1.000000
vn 1.000000 0.000000 -0.000000
vn 1.000000 0.000000 -0.000000
vn 1.000000 0.000000 -0.000000
vn 1.000000 0.000000 -0.000000
s off
g pPlane1
usemtl initialShadingGroup
f 1/1/1 2/2/2 4/4/3 3/3/4
